<?xml version="1.0" encoding="utf-8"?>
<svg viewBox="0 0 500 500" width="500" height="500" xmlns="http://www.w3.org/2000/svg">
  <path fill="rgb(25,234,55)" stroke="rgb(254,0,0)" stroke-width="0" d="M 156.096 75.02 C 159.906 75.048 167.498 76.574 170.462 80.469 C 173.884 84.965 174.054 93.163 173.435 102.266 C 172.575 114.905 164.553 130.588 161.546 150.812 C 157.533 177.797 144.75 239.968 154.61 253.355 C 160.959 261.974 176.589 252.226 188.791 253.355 C 202.328 254.608 216.48 259.748 232.384 261.281 C 250.154 262.995 282.646 262.858 290.839 262.272 C 293.794 262.061 294.134 263.454 295.297 261.281 C 298.672 254.981 308.319 207.179 297.279 195.892 C 285.754 184.11 237.191 197.95 224.458 194.901 C 218.221 193.407 216.338 192.197 214.055 188.461 C 211.169 183.737 210.849 176.194 211.083 166.664 C 211.426 152.701 215.951 125.238 220 110.192 C 223.147 98.497 223.704 87.21 231.394 81.955 C 240.028 76.055 257.511 79.324 272.015 79.974 C 288.015 80.691 303.729 85.644 323.534 86.909 C 347.44 88.435 393.345 83.229 406.757 86.909 C 412.936 88.604 413.694 89.202 416.169 94.339 C 420.783 103.917 421.823 128.658 423.104 150.812 C 424.697 178.359 423.825 213.95 423.104 248.897 C 422.316 287.15 422.501 349.483 418.151 371.75 C 416.002 382.747 414.212 387.047 409.729 391.07 C 405.563 394.809 401.261 394.697 392.886 396.024 C 378.535 398.297 350.534 399.278 325.515 399.987 C 296.578 400.806 259.079 400.721 228.421 399.987 C 199.86 399.303 166.866 398.313 147.18 396.024 C 133.915 394.482 123.964 392.837 117.457 390.079 C 113.183 388.268 110.781 386.574 109.036 383.639 C 107.198 380.55 106.271 375.331 107.054 371.75 C 107.82 368.248 110.195 364.282 113.494 362.338 C 117.269 360.114 122.64 360.057 129.346 360.357 C 138.762 360.777 147.532 365.678 166.004 367.292 C 198.952 370.171 284.994 370.133 324.524 369.273 C 351.86 368.679 375.06 379.502 387.437 365.31 C 403.422 346.982 391.603 283.074 392.391 245.925 C 393.11 212.016 393.286 173.764 392.391 150.812 C 391.796 135.547 397.707 123.209 389.419 116.631 C 378.098 107.647 338.259 117.727 314.617 116.631 C 292.517 115.607 263.313 101.862 251.704 110.687 C 240.796 118.979 235.626 154.724 243.778 164.188 C 252.385 174.179 291.345 163.075 305.7 166.169 C 315.254 168.228 321.766 168.19 326.011 175.581 C 332.409 186.722 328.328 219.766 327.992 237.999 C 327.709 253.367 327.405 270.569 325.02 278.62 C 323.658 283.216 323.523 284.843 319.571 287.041 C 312.626 290.903 293.083 292.123 278.95 292.985 C 264.084 293.893 247.863 293.47 232.384 291.995 C 216.819 290.511 201.955 285.418 185.819 284.069 C 168.985 282.661 143.213 286.631 133.309 284.069 C 127.932 282.677 125.89 281.277 123.897 277.629 C 121.31 272.893 121.767 267.272 121.915 255.832 C 122.202 233.745 127.471 173.342 131.823 142.886 C 135.167 119.485 139.853 95.125 143.712 85.423 C 145.552 80.796 146.987 79.739 149.161 77.992 C 151.168 76.379 153.23 74.998 156.096 75.02 Z M 188.131 212.074 C 197.191 210.374 239.406 211.081 252.53 214.055 C 260.08 215.767 264.21 217.765 266.896 221.486 C 269.431 225 269.738 231.651 268.877 235.357 C 268.149 238.49 266.255 241.06 263.428 242.787 C 259.979 244.895 255.936 245.407 248.567 245.76 C 235.74 246.373 198.156 244.842 188.131 241.797 C 183.41 240.363 182.426 238.975 180.7 236.347 C 178.766 233.403 177.236 228.077 177.728 224.458 C 178.197 221.008 181.186 217.136 183.177 215.046 C 184.723 213.424 184.678 212.722 188.131 212.074 Z M 355.238 176.407 C 357.682 175.878 362.225 175.458 365.145 176.407 C 367.982 177.328 370.8 179.945 372.576 181.856 C 374.049 183.442 374.849 183.539 375.548 186.81 C 377.226 194.658 375.768 217.51 375.548 238.329 C 375.262 265.482 377.155 324.477 373.567 338.395 C 372.185 343.755 370.726 343.963 368.118 345.826 C 365.168 347.932 363.309 348.829 356.229 349.789 C 340.301 351.947 284.364 348.908 261.116 350.779 C 245.327 352.05 237.566 355.725 225.449 356.724 C 213.135 357.739 202.297 358.046 187.801 356.724 C 169.948 355.096 138.223 350.189 125.383 345.826 C 117.86 343.269 113.657 341.118 111.017 337.404 C 108.697 334.141 108.34 328.99 109.036 325.515 C 109.682 322.287 111.513 319.001 114.485 317.094 C 118.079 314.787 122.462 313.883 130.337 314.122 C 144.308 314.545 182.15 325.414 196.717 327.001 C 205.265 327.933 206.709 327.627 214.551 327.001 C 226.209 326.072 243.557 321.462 262.107 320.066 C 284.936 318.348 327.875 335.138 342.853 319.075 C 360.6 300.044 346.317 211.951 345.826 195.727 C 345.661 190.299 344.147 190.479 344.835 187.801 C 345.628 184.712 349.258 180.236 351.275 178.388 C 352.657 177.122 353.466 176.79 355.238 176.407 Z M 130.337 32.087 C 167.62 28.346 290.019 30.456 337.404 32.087 C 366.956 33.104 388.833 33.481 400.812 37.041 C 407.276 38.962 409.998 41.133 412.206 44.472 C 414.31 47.652 414.883 52.886 414.188 56.361 C 413.542 59.589 410.836 62.862 408.738 64.782 C 406.959 66.411 406.109 67.104 402.794 67.754 C 396.449 69 379.546 68.692 369.108 67.754 C 359.525 66.893 358.029 63.947 342.358 62.801 C 306.796 60.2 160.398 60.727 131.328 62.801 C 121.061 63.533 119.85 61.884 115.971 65.773 C 110.776 70.98 108.903 81.871 107.054 96.982 C 104.009 121.864 108.401 181.032 107.054 209.927 C 106.091 230.583 102.944 241.706 102.1 258.474 C 101.218 275.999 103.8 297.219 102.1 312.966 C 100.667 326.243 95.465 336.335 94.174 347.642 C 92.942 358.44 96.203 371.837 94.174 379.346 C 92.728 384.699 90.082 388.532 86.744 390.74 C 83.563 392.843 78.329 393.416 74.855 392.721 C 71.626 392.075 68.354 389.37 66.433 387.272 C 64.805 385.493 64.117 384.692 63.461 381.328 C 62.177 374.74 62.179 357.593 63.461 345.66 C 64.769 333.486 69.977 322.658 71.387 309.003 C 73 293.379 70.492 273.244 71.387 256.493 C 72.235 240.627 75.362 230.839 76.341 210.918 C 77.764 181.949 74.003 120.175 76.341 94.009 C 77.774 77.97 79.13 69.648 83.276 60.324 C 86.953 52.056 91.402 44.703 98.633 40.013 C 106.622 34.831 112.522 33.875 130.337 32.087 Z" style="fill: rgb(166, 209, 48); stroke: rgb(129, 151, 57); stroke-width: 2px;"/>
</svg>